# xmcd CD database file
#
# Track frame offsets:
#	150
#	24550
#	43670
#	65335
#	78912
#	105435
#	122200
#	139332
#	166932
#	193580
#
# Disc length: 2759 seconds
#
# Revision: 0
# Processed by: cddbd v1.5PL3 Copyright (c) Steve Scherf et al.
# Submitted via: CDex 1.50
#
DISCID=810ac50a
DTITLE=LO MEJOR DE TIPICA NOVEL - NOVEL
DYEAR=70
DGENRE=Salsa
TTITLE0=Vamos Pal Monte Compay
TTITLE1=El Caretero
TTITLE2=Salsa En Nuva York
TTITLE3=Yo Preferiero El Son
TTITLE4=No Me Reganes
TTITLE5=Que Viva El Son Montuno
TTITLE6=Tiene Sabor
TTITLE7=La Batalla De Los Barrios
TTITLE8=Llego La Charanga
TTITLE9=La Rutina Y El Sabor
EXTD=YEAR: 70
EXTT0=
EXTT1=
EXTT2=
EXTT3=
EXTT4=
EXTT5=
EXTT6=
EXTT7=
EXTT8=
EXTT9=
PLAYORDER=
